<?xml version="1.0" standalone="no"?>
<!DOCTYPE svg PUBLIC "-//W3C//DTD SVG 20010904//EN"
 "http://www.w3.org/TR/2001/REC-SVG-20010904/DTD/svg10.dtd">
<svg version="1.0" xmlns="http://www.w3.org/2000/svg"
 width="256.000000pt" height="256.000000pt" viewBox="0 0 256.000000 256.000000"
 preserveAspectRatio="xMidYMid meet">
<metadata>
Created by potrace 1.14, written by Peter Selinger 2001-2017
</metadata>
<g transform="translate(0.000000,256.000000) scale(0.100000,-0.100000)"
fill="#000000" stroke="none">
<path d="M1251 2543 c-5 -11 -9 -271 -9 -616 0 -329 -2 -600 -5 -603 -3 -3
-279 -6 -613 -7 -566 -2 -608 -3 -618 -19 -8 -13 -8 -23 0 -36 10 -16 52 -17
618 -19 334 -1 610 -4 613 -7 3 -3 5 -274 5 -603 0 -348 4 -605 9 -616 11 -20
42 -23 57 -4 6 8 10 227 10 621 l0 609 603 0 c342 0 612 4 622 9 9 5 17 17 17
28 0 11 -8 23 -17 28 -10 5 -278 9 -616 9 -328 0 -600 3 -603 6 -4 3 -6 275
-6 604 0 345 -4 605 -9 616 -6 9 -18 17 -29 17 -11 0 -23 -8 -29 -17z"/>
<path d="M490 2413 c-169 -34 -323 -186 -364 -360 -78 -335 210 -635 556 -579
66 10 178 66 184 92 13 50 -21 57 -94 20 -105 -52 -214 -58 -325 -16 -111 42
-191 126 -238 250 -31 80 -23 204 18 292 105 224 375 301 585 167 167 -107
229 -337 138 -513 -37 -73 -38 -94 -4 -102 29 -7 44 7 76 76 35 74 47 138 44
224 -9 206 -146 382 -341 439 -49 14 -185 20 -235 10z"/>
<path d="M1543 2400 c-37 -22 -60 -82 -49 -126 4 -16 57 -77 129 -150 67 -67
135 -136 150 -152 l29 -30 -151 -151 c-122 -123 -151 -158 -157 -187 -13 -70
41 -136 111 -136 88 0 215 147 143 165 -17 5 -34 -5 -74 -43 -55 -52 -71 -59
-92 -38 -29 29 -10 55 144 208 85 85 160 163 166 173 8 16 -14 43 -156 186
-170 171 -188 198 -146 221 28 15 40 5 215 -170 82 -83 156 -150 164 -150 9 0
88 72 177 161 88 88 169 162 180 163 10 2 25 -1 32 -7 31 -24 10 -54 -152
-216 -90 -90 -163 -170 -162 -178 1 -8 75 -88 164 -177 170 -171 186 -196 136
-218 -24 -11 -32 -5 -192 155 -92 92 -174 167 -182 167 -18 0 -150 -130 -150
-147 0 -6 7 -19 16 -27 20 -20 45 -8 95 45 l36 39 139 -140 c76 -78 152 -148
169 -157 108 -58 217 60 150 163 -9 14 -77 85 -152 159 l-137 135 25 26 c13
15 81 85 152 156 70 71 127 134 128 141 0 7 2 21 5 32 12 62 -47 125 -118 125
-45 0 -65 -15 -221 -173 l-137 -138 -136 135 c-74 75 -147 145 -161 156 -33
26 -88 26 -130 0z"/>
<path d="M543 2278 c-258 -38 -376 -335 -217 -544 59 -77 159 -125 264 -126
131 -2 242 69 302 190 30 60 33 75 33 152 -1 77 -4 91 -35 148 -69 130 -206
201 -347 180z m123 -83 c103 -30 186 -139 186 -246 -1 -79 -22 -129 -77 -186
-102 -105 -252 -109 -363 -9 -112 101 -108 289 8 389 42 35 111 63 164 65 17
1 54 -5 82 -13z"/>
<path d="M1100 1441 c-7 -15 -5 -24 8 -41 16 -19 22 -21 40 -11 22 12 27 27
16 55 -9 22 -51 20 -64 -3z"/>
<path d="M1396 1444 c-10 -27 -7 -43 13 -54 29 -15 63 17 51 48 -11 26 -55 31
-64 6z"/>
<path d="M1105 1158 c-19 -28 -3 -58 30 -58 18 0 26 7 31 26 11 44 -35 69 -61
32z"/>
<path d="M1413 1170 c-37 -15 -27 -70 13 -70 34 0 49 33 26 58 -13 16 -22 18
-39 12z"/>
<path d="M192 1086 c-59 -17 -96 -99 -69 -153 9 -15 79 -92 156 -170 78 -78
141 -144 141 -147 0 -2 -67 -73 -150 -156 -82 -83 -150 -157 -151 -163 0 -7
-2 -23 -5 -35 -6 -34 24 -90 57 -107 38 -20 89 -19 119 2 14 10 87 80 163 156
l139 138 134 -134 c73 -74 145 -144 160 -156 54 -42 144 -18 171 46 28 69 16
91 -145 255 -81 82 -148 151 -150 152 -2 2 64 72 147 155 120 121 152 159 157
186 16 90 -72 164 -154 129 -17 -7 -96 -77 -175 -157 l-145 -144 -154 152
c-163 161 -179 171 -246 151z m218 -231 c91 -91 171 -165 180 -165 8 0 89 74
180 165 92 91 173 165 181 165 21 0 39 -20 39 -45 0 -13 -57 -77 -159 -179
-88 -88 -162 -167 -164 -176 -3 -12 45 -68 159 -181 164 -164 183 -191 150
-218 -7 -6 -22 -8 -32 -5 -11 4 -91 78 -178 166 -87 87 -166 158 -175 158 -9
0 -86 -70 -171 -156 -85 -86 -164 -159 -175 -164 -11 -4 -28 -4 -38 2 -40 21
-19 51 147 217 90 90 163 170 162 179 -2 8 -75 88 -164 177 -94 95 -162 171
-162 182 0 23 18 43 40 43 8 0 89 -74 180 -165z"/>
<path d="M1860 1082 c-14 -2 -59 -20 -100 -39 -355 -169 -354 -684 1 -856 146
-71 341 -58 471 31 142 98 222 254 212 419 -4 85 -7 98 -35 164 -46 108 -126
192 -234 244 -84 40 -130 49 -150 28 -8 -8 -15 -18 -15 -23 0 -15 31 -40 48
-40 29 0 136 -56 177 -91 132 -116 173 -318 96 -474 -110 -224 -374 -298 -583
-164 -164 105 -226 327 -142 505 48 103 162 198 262 219 43 9 61 41 36 64 -11
10 -30 16 -44 13z"/>
<path d="M1890 943 c-72 -18 -130 -53 -174 -104 -156 -183 -83 -462 145 -543
69 -25 185 -18 254 15 64 30 126 94 161 166 39 79 40 193 3 273 -72 155 -231
234 -389 193z m196 -92 c94 -46 150 -147 142 -256 -19 -233 -302 -325 -458
-148 -125 143 -52 375 135 424 45 12 135 2 181 -20z"/>
</g>
</svg>
